<svg xmlns="http://www.w3.org/2000/svg" class="img-fluid mb-3 mb-md-0" role="img" viewBox="0 0 1024 860" focusable="false" width="512" height="430" xmlns:xlink="http://www.w3.org/1999/xlink"><title>Bootstrap</title><defs><linearGradient id="c" x1="50%" y1="0%" x2="50%" y2="100%"><stop stop-color="rgb(92, 36, 174)" offset="0%"/><stop stop-color="rgb(48, 19, 90)" offset="100%"/></linearGradient><path id="b" d="M 355.967 242.807 l -322 216.395 c -44.275 29.754 -44.275 78.443 0 108.197 l 322 216.395 c 44.275 29.754 116.725 29.754 161 0 l 322 -216.395 c 44.275 -29.754 44.275 -78.443 0 -108.197 l -322 -216.395 c -44.275 -29.754 -116.725 -29.754 -161 0 Z"/><filter id="a" x="-4%" y="-4.3%" width="108%" height="112%" filterUnits="objectBoundingBox"><feOffset result="shadowOffsetOuter1" in="SourceAlpha" dy="10"/><feGaussianBlur result="shadowBlurOuter1" in="shadowOffsetOuter1" stdDeviation="10"/><feColorMatrix in="shadowBlurOuter1" values="0 0 0 0 0 0 0 0 0 0 0 0 0 0 0 0 0 0 0.25 0"/></filter><linearGradient id="f" x1="50%" y1="-17.303%" x2="50%" y2="100%"><stop stop-color="rgb(115, 49, 212)" offset="0%"/><stop stop-color="rgb(70, 27, 132)" offset="100%"/></linearGradient><path id="e" d="M 355.967 132.807 l -322 216.395 c -44.275 29.754 -44.275 78.443 0 108.197 l 322 216.395 c 44.275 29.754 116.725 29.754 161 0 l 322 -216.395 c 44.275 -29.754 44.275 -78.443 0 -108.197 l -322 -216.395 c -44.275 -29.754 -116.725 -29.754 -161 0 Z"/><filter id="d" x="-4%" y="-4.3%" width="108%" height="112%" filterUnits="objectBoundingBox"><feOffset result="shadowOffsetOuter1" in="SourceAlpha" dy="10"/><feGaussianBlur result="shadowBlurOuter1" in="shadowOffsetOuter1" stdDeviation="10"/><feColorMatrix in="shadowBlurOuter1" values="0 0 0 0 0 0 0 0 0 0 0 0 0 0 0 0 0 0 0.25 0"/></filter><linearGradient id="i" x1="50%" y1="0%" x2="50%" y2="100%"><stop stop-color="rgb(144, 91, 221)" offset="0%"/><stop stop-color="rgb(85, 33, 160)" offset="100%"/></linearGradient><path id="h" d="M 355.967 22.807 l -322 216.395 c -44.275 29.754 -44.275 78.443 0 108.197 l 322 216.395 c 44.275 29.754 116.725 29.754 161 0 l 322 -216.395 c 44.275 -29.754 44.275 -78.443 0 -108.197 l -322 -216.395 c -44.275 -29.754 -116.725 -29.754 -161 0 Z"/><filter id="g" x="-4%" y="-4.3%" width="108%" height="112%" filterUnits="objectBoundingBox"><feOffset result="shadowOffsetOuter1" in="SourceAlpha" dy="10"/><feGaussianBlur result="shadowBlurOuter1" in="shadowOffsetOuter1" stdDeviation="10"/><feColorMatrix in="shadowBlurOuter1" values="0 0 0 0 0 0 0 0 0 0 0 0 0 0 0 0 0 0 0.25 0"/></filter></defs><g fill="none"><g transform="translate(75 23)"><use filter="url(#a)" fill="#000" xlink:href="#b"/><use fill="url(#c)" xlink:href="#b"/></g><g transform="translate(75 23)"><use filter="url(#d)" fill="#000" xlink:href="#e"/><use fill="url(#f)" xlink:href="#e"/></g><g transform="translate(75 23)"><use filter="url(#g)" fill="#000" xlink:href="#h"/><use fill="url(#i)" xlink:href="#h"/></g><path fill="#fff" d="M 558.273 447.667 L 308.036 279.5 l 97.982 -65.847 c 42.83 -28.784 96.789 -31.483 134.245 -6.311 c 26.044 17.502 31.214 46.615 11.444 65.724 l 1.389 0.934 c 38.324 -19.932 84.107 -18.527 117.396 3.845 c 44.046 29.6 38.671 68.419 -14.561 104.193 l -97.658 65.629 Z M 447.112 331.01 l 49.942 -33.562 c 36.935 -24.822 42.31 -48.249 15.224 -66.451 c -24.798 -16.665 -55.49 -14.453 -85.851 5.95 l -59.641 40.081 l 80.326 53.982 Z m 176.532 35.663 c 37.63 -25.289 42.136 -48.832 13.203 -68.276 c -28.932 -19.444 -64.163 -15.614 -104.042 11.186 l -58.789 39.508 l 87.92 59.084 l 61.708 -41.502 Z"/></g></svg>